<svg id="Layer_1" data-name="Layer 1" xmlns="http://www.w3.org/2000/svg" viewBox="0 0 80 80"><defs><style>.cls-1{fill:none;stroke:#888;stroke-miterlimit:10;}</style></defs><polyline class="cls-1" points="7.57 41.74 7.57 18.74 72.43 18.74 72.43 41.74"/><path class="cls-1" d="M11.63,41.74V39.66a5,5,0,0,1,5-5H31.5a5,5,0,0,1,5,5v2.08"/><path class="cls-1" d="M68.37,41.74V39.66a5,5,0,0,0-5-5H48.5a5,5,0,0,0-5,5v2.08"/><rect class="cls-1" x="4.19" y="41.84" width="71.61" height="16.02"/><rect class="cls-1" x="8.67" y="57.86" width="8.53" height="3.4"/><rect class="cls-1" x="62.8" y="57.86" width="8.53" height="3.4" transform="translate(134.14 119.11) rotate(-180)"/></svg>