<svg id="arrow-circle-down" xmlns="http://www.w3.org/2000/svg" viewBox="0 0 15 15"><defs><style>.cls-1{fill:#06be34;}</style></defs><path class="cls-1" d="M9.75,7.31c0-2,0-3.9,0-5.77,0-.67.2-.95.91-.92,1.15.05,2.3,0,3.45,0,.6,0,.88.21.88.9q0,6.07,0,12.16c0,.47-.16.66-.62.66-1.36,0-2.73,0-4.1,0a1.35,1.35,0,0,1-.88-.58c-1.33-1.9-2.62-3.82-4-5.93,0,.41-.07.62-.07.83,0,1.63,0,3.26,0,4.9,0,.61-.19.85-.83.82-1.22,0-2.45,0-3.67,0-.5,0-.74-.14-.73-.69Q0,7.52,0,1.37C0,.84.24.63.75.64,2,.64,3.34.6,4.63.65a1.38,1.38,0,0,1,.91.54C6.82,3,8.06,4.86,9.32,6.71,9.43,6.88,9.56,7.05,9.75,7.31Z"/></svg>