<svg id="arrow-circle-down" xmlns="http://www.w3.org/2000/svg" viewBox="0 0 15 15"><defs><style>.cls-1{fill:#5a5a5a;}.cls-2{fill:#fff;}</style></defs><path class="cls-1" d="M7.34.56c-.27,0-.71,0-1.14.1A7.92,7.92,0,0,0,1.52,2.91,4.92,4.92,0,0,0,.43,8.57a6.23,6.23,0,0,0,2.82,2.85c.17.09.21.17.15.36q-.31,1.16-.6,2.31a.88.88,0,0,0,0,.35,1,1,0,0,0,.34-.1l2.68-1.86a.61.61,0,0,1,.37-.1,9,9,0,0,0,3-.07,7.67,7.67,0,0,0,4.31-2.21,4.92,4.92,0,0,0,1.51-4A5.23,5.23,0,0,0,13,2.42,8.69,8.69,0,0,0,7.34.56Z"/><path class="cls-2" d="M11.09,6.22l1.1-1c.07-.06.13-.14.2-.2a.35.35,0,0,1,.52,0,.35.35,0,0,1,0,.51l-.79.77c-.08.07-.17.14-.26.23l1.1,1.41a.38.38,0,0,1-.08.6.37.37,0,0,1-.51-.15l-.86-1.15L11.35,7a.41.41,0,0,0-.26.46c0,.23,0,.47,0,.7a.38.38,0,0,1-.38.4.37.37,0,0,1-.37-.41V5.24a.36.36,0,0,1,.38-.39.37.37,0,0,1,.37.41Z"/><path class="cls-2" d="M6.74,7.83c-.47,0-.92,0-1.36,0A.25.25,0,0,0,5.19,8a1.85,1.85,0,0,0-.12.33.35.35,0,0,1-.47.24.35.35,0,0,1-.2-.47c0-.13.09-.26.14-.38.29-.79.59-1.57.88-2.36A.62.62,0,0,1,6,4.86c.26,0,.45.15.58.49.32.86.64,1.73,1,2.59l.07.22a.36.36,0,0,1-.67.22C6.85,8.21,6.81,8,6.74,7.83ZM6.06,5.65l-.5,1.52h1Z"/><path class="cls-2" d="M3.76,5.58V8a2.26,2.26,0,0,1,0,.26.34.34,0,0,1-.37.34.33.33,0,0,1-.34-.37V5.58H2.37c-.26,0-.41-.14-.42-.35a.37.37,0,0,1,.41-.37H4.44a.37.37,0,0,1,.41.36c0,.21-.16.35-.41.36Z"/><path class="cls-2" d="M8.67,7.83h.94c.28,0,.44.14.44.36s-.16.36-.44.36H8.46c-.33,0-.5-.16-.5-.48,0-.94,0-1.87,0-2.8a.37.37,0,0,1,.37-.41c.2,0,.34.17.34.43V7.83Z"/></svg>