<svg id="Layer_1" data-name="Layer 1" xmlns="http://www.w3.org/2000/svg" viewBox="0 0 80 80"><defs><style>.cls-1{fill:none;stroke:#888;stroke-miterlimit:10;}</style></defs><path class="cls-1" d="M26.71,39.7C21.59,36.93,18,38.36,15.84,43c-.32.7.84,3-.72,3.66-1.69.15-4.18-1.09-5.78-2.06-3.35-2-3.28-4.87-.7-7.91,3.75-4.42,10.29-8.07,17.31-5.32a39.45,39.45,0,0,0,6.88,1.85c2.77.54,5.52.21,7.64-1.82a5.49,5.49,0,0,0,1.69-3.35c.3-7.55,5-11.89,11.28-14.22,2.47-.91,5.84.57,8.78,1.07.36.06,1,.89.86,1.13-1.35,3.37,1.83,4.7,3,6.92a10.85,10.85,0,0,1,1.27,3.29c.57,3.4-1.59,5.22-4.9,4.17-1.12-.36-2.07-1.2-3.17-1.61-2.84-1.05-4.78,0-5,3-.35,4.51.27,8.55,4.06,12,2.93,2.65,4.94,6.34,7.62,9.92,1.63-.85,3.38-1.8,5.17-2.7,1.5-.74,3-.95,4.05.69s.11,2.85-1.27,3.84A56.9,56.9,0,0,1,57,63.71c-17.68,5.45-34.22,2.71-49.62-7.4-.28-.18-.6-.32-.87-.52-1.39-1-2.95-2.12-1.62-4.13s2.91-1.15,4.48-.32S12.64,53,14.62,54C17.27,48.11,20.79,43.23,26.71,39.7ZM58.45,57.2C54.78,49.27,48,47.47,41,47.34c-7.75-.15-15,2-19.5,10C33.87,62.1,45.81,62.08,58.45,57.2Z"/></svg>