<svg id="Layer_1" data-name="Layer 1" xmlns="http://www.w3.org/2000/svg" viewBox="0 0 80 80"><defs><style>.cls-1{fill:none;stroke:#888;stroke-miterlimit:10;}</style></defs><rect class="cls-1" x="3.93" y="15.11" width="72.15" height="6.12" rx="2.94"/><path class="cls-1" d="M16.54,51.28A6.19,6.19,0,0,1,22,57.58V63H11.1V57.58a6.19,6.19,0,0,1,5.44-6.3v-30"/><polyline class="cls-1" points="64.79 51.27 70.23 51.31 70.23 60.55 64.79 60.55 59.35 60.55 59.35 51.31 64.79 51.27 64.79 21.29"/><path class="cls-1" d="M50.64,51.28a6.19,6.19,0,0,1,5.44,6.3v0c0,3-2.43,6.29-5.44,6.29h0c-3,0-5.44-3.28-5.44-6.29v0a6.19,6.19,0,0,1,5.44-6.3v-30"/><path class="cls-1" d="M39,21.29V55.48H26.68a9.49,9.49,0,0,0,2.51,5.09A5.72,5.72,0,0,0,37.52,60,10.72,10.72,0,0,0,39,55.48"/><line class="cls-1" x1="62.74" y1="51.17" x2="62.74" y2="59.99"/><line class="cls-1" x1="66.85" y1="51.17" x2="66.85" y2="59.99"/></svg>