<svg id="Layer_1" data-name="Layer 1" xmlns="http://www.w3.org/2000/svg" viewBox="0 0 219.79 54.75"><defs><style>.cls-1{fill:#e20613;fill-rule:evenodd;}</style></defs><path class="cls-1" d="M175.13,54.62h19.7V51.17h-8.67V36a29.07,29.07,0,0,1,.53-9.07,7.16,7.16,0,0,1,2.23-4.48,7.25,7.25,0,0,1,4.61-2,6,6,0,0,1,4,.81A7.77,7.77,0,0,1,200,26.82l-.2,4.47.2,23.33h19.82V51.17h-8.67V31.87a26.1,26.1,0,0,0-2-10,8.06,8.06,0,0,0-5.24-4.41,13.58,13.58,0,0,0-6.38-.67,14.37,14.37,0,0,0-12.45,6.07,9,9,0,0,0-3.6-4.42,16.69,16.69,0,0,0-7.86-1.81,18.63,18.63,0,0,0-12.74,4.59V17.32H141.42v3.44h8.35V54.62h19.79V51.17H160.9V36a23.89,23.89,0,0,1,1.64-10.66,6.78,6.78,0,0,1,6.05-4.72,7.38,7.38,0,0,1,3.6.49,3.92,3.92,0,0,1,2.12,2.78,23.37,23.37,0,0,1,.82,7.35V54.62Z"/><path class="cls-1" d="M104.22,24.28a18.46,18.46,0,0,0-1.12,1.79,21.42,21.42,0,0,0-2.64,9.38,16.38,16.38,0,0,0,.41,4.06,17.71,17.71,0,0,0,9.3,13.71,20.7,20.7,0,0,0,10.62,2A18,18,0,0,0,138.7,42.66a26.15,26.15,0,0,0,.77-8.95,18.19,18.19,0,0,0-18.68-17,18.86,18.86,0,0,0-16.57,7.57Zm16.49,28.53a6.56,6.56,0,0,1-6.74-4,20.14,20.14,0,0,1-1.18-4.9,66.88,66.88,0,0,1-.35-9.71,29.18,29.18,0,0,1,1.06-9.88,6.92,6.92,0,0,1,13.42,0A42.06,42.06,0,0,1,128,36a38.45,38.45,0,0,1-1.06,11.61,6.71,6.71,0,0,1-6.23,5.22Z"/><path class="cls-1" d="M57.92,25.2a21.29,21.29,0,0,0-3,12.39A20.15,20.15,0,0,0,58.41,48a18.28,18.28,0,0,0,11.9,7.09,28.08,28.08,0,0,0,11-.73,22.18,22.18,0,0,0,7.2-4.3,20.61,20.61,0,0,0,5-18.21,18,18,0,0,0-8-12.12,21.79,21.79,0,0,0-18.3-1.92,18.45,18.45,0,0,0-9.29,7.39ZM77.06,52.41a7.88,7.88,0,0,1-3.89.36,5.56,5.56,0,0,1-4.28-2.59,13.59,13.59,0,0,1-1.83-5.73L67,34.82A66.11,66.11,0,0,1,67.2,27a12.65,12.65,0,0,1,1.69-5.21,6.1,6.1,0,0,1,3.91-2.4,6.6,6.6,0,0,1,7.37,2.84A17,17,0,0,1,81.84,28l.1,12a23.72,23.72,0,0,1-1,8.25,6.1,6.1,0,0,1-3.91,4.16Z"/><polygon class="cls-1" points="44.49 0.63 24.85 0.63 24.85 3.73 33.37 3.73 33.37 54.75 53.49 54.75 53.49 51.64 44.49 51.64 44.49 0.63 44.49 0.63"/><polygon class="cls-1" points="8.83 54.58 28.62 54.58 28.62 51.97 19.79 51.97 19.79 17.95 0 17.95 0 20.57 8.83 20.57 8.83 54.58 8.83 54.58"/><path class="cls-1" d="M15.21,11.4A5.77,5.77,0,0,0,18.9,9a5.88,5.88,0,0,0,.92-4.31A5.74,5.74,0,0,0,13.12.1a5.72,5.72,0,0,0-3.7,2.4,5.64,5.64,0,0,0-.91,4.3,5.8,5.8,0,0,0,2.4,3.7,5.7,5.7,0,0,0,4.3.9Z"/></svg>