<svg id="Layer_1" data-name="Layer 1" xmlns="http://www.w3.org/2000/svg" viewBox="0 0 181.37 32.98"><defs><style>.cls-1{fill:#ca001e;}.cls-2{fill:#535555;}</style></defs><path class="cls-1" d="M83.52,17.21c-3.7.53-6.46-1.56-6.45-5a7,7,0,0,1,6.48-6.68c3.7-.46,6.38,1.55,6.37,5A7,7,0,0,1,83.52,17.21Zm0-1.47a5,5,0,0,0,4.5-5,3.68,3.68,0,0,0-3.39-3.94,4.08,4.08,0,0,0-1.1.08A5,5,0,0,0,79,12a3.68,3.68,0,0,0,3.45,3.89,3.84,3.84,0,0,0,1.12-.1ZM96.67,27.32l2.51-.15a.35.35,0,0,1,.28.06.3.3,0,0,1,.11.25,1.56,1.56,0,0,1-.31,1l-.32.16-13.4,1.89c-1.57.23-2-.23-2-1.54V26.06a3,3,0,0,0-1.65-.47v-.53a.31.31,0,0,1,.32-.23,29.05,29.05,0,0,1,3.23-.23l9.46-1.44.47-.23c.08-.77.08-2.7.09-3.47l-8.91,1.3a11.4,11.4,0,0,0-2.29.76,8.54,8.54,0,0,1-2.29-.85.23.23,0,0,1-.07-.31l.15-.31A15.19,15.19,0,0,0,84.62,20l10.8-1.59.86-.54h.48l1,.47c.16.08.16.23.08.39l-.32.69a20.26,20.26,0,0,1-.63,3.46l.55.24a.21.21,0,0,1,.15.23,1,1,0,0,1-.23.69l-12,1.74v3.32c0,.38.16.47.55.47l9.94-1.37ZM96,3.14A4.76,4.76,0,0,0,93.49,2l.24-.7c0-.15.08-.15.31-.23a14.09,14.09,0,0,1,3.55.24c.24.08.32.23.31.54l0,9.94a16.38,16.38,0,0,1-.63,4.77l-1.1.16A31,31,0,0,1,96,12.61Z"/><path class="cls-1" d="M123.29,14.06a14,14,0,0,1,3.23-.07.46.46,0,0,1,.4.46,1.47,1.47,0,0,1-.63,1.08l-3.31.31-8.6,1.21v.47a18.38,18.38,0,0,1-.32,3.31l4.42-.68.86-.54h.47l1.1.47c.16.08.16.16.08.31l-.31,1a42.45,42.45,0,0,1-.64,5.38l.55.16c.15.08.15.16.15.31a1.19,1.19,0,0,1-.31.85l-11.75,1.72a2.11,2.11,0,0,1-.31.76l-1,.16a3.88,3.88,0,0,1-.23-1.31l-.46-6.24a3.78,3.78,0,0,0-1.42-.7l.16-.53c0-.08.08-.16.24-.16a19.88,19.88,0,0,1,3-.07l4.18-.61c-.08-.92-.08-2.08-.08-2.85v-.93l-7,1.07a16.51,16.51,0,0,0-3.08,1,7.09,7.09,0,0,1-2.83-1.08.15.15,0,0,1-.09-.1.13.13,0,0,1,0-.13l.23-.47a18.54,18.54,0,0,0,3.16-.15c1.81-.23,17.11-2.51,19.16-2.89ZM105.72,9.63a3,3,0,0,0-1.65-.47V8.63c0-.08.08-.16.32-.16l3.23-.3,10.17-1.6.47-.23A27.37,27.37,0,0,0,118.35,3L109.28,4.4l-2.45.77a7.89,7.89,0,0,1-2.44-.86.23.23,0,0,1-.08-.31l.16-.31a17.14,17.14,0,0,0,2.68-.15L118.43,1.8l.79-.54h.47l1.1.48a.31.31,0,0,1,.08.38l-.32.69A21.79,21.79,0,0,1,120,6.12l.55.23c.08.08.16.08.16.16a1,1,0,0,1-.24.69L107.69,9.1v3.39c0,.38.08.54.47.47,2.52-.31,8.36-1.22,10.1-1.6l.86-.53a16.41,16.41,0,0,1,2.52-.16.31.31,0,0,1,.31.32,1.52,1.52,0,0,1-.31.92l-.32.16-13.64,2c-1.5.23-2-.23-2-1.47Zm12.83,11.66-10.09,1.52V28.5c2.67-.3,7.17-1.06,9.3-1.44l.63-.23Z"/><path class="cls-1" d="M133,13.07A30.84,30.84,0,0,1,126.11,21c-.15.08-.23.15-.31.08l-.24-.24c-.07-.07-.07-.15.08-.31a30.11,30.11,0,0,0,7.44-12.23,4.41,4.41,0,0,0-1.73-1.16l.32-.61c.07-.16.15-.16.31-.16a8.17,8.17,0,0,1,2.92.7.48.48,0,0,1,.31.47,1.77,1.77,0,0,1-.08.61,20.19,20.19,0,0,1-1.42,3.7l3.37,2.93,1.19.38a8.2,8.2,0,0,1,1.09,1.7.74.74,0,0,1,.08.69.86.86,0,0,1-.87.54,1,1,0,0,1-.55-.38Zm15.42,11.28a6.64,6.64,0,0,1-6.31,6.3c-3.71.46-6.31-1.39-6.3-4.63s2.61-5.62,6.32-6.15,6.29,1.39,6.29,4.48Zm-1.88.23c0-2.47-1.81-3.78-4.41-3.48a4.75,4.75,0,0,0-4.42,4.62c0,2.46,1.8,3.77,4.4,3.47a4.74,4.74,0,0,0,4.42-4.62ZM145.07,1.39c0-.16.16-.16.32-.23a12,12,0,0,1,3.38.24.46.46,0,0,1,.31.54l0,12.78a21.68,21.68,0,0,1-.64,5l-1.1.15c-.08-1.08-.15-3.08-.15-4.23V11.56l-4.11.68v1.39a20,20,0,0,1-.56,4.93l-1,.15c-.07-1.08-.15-3-.14-4.16V5.46a3.92,3.92,0,0,0-2.12-1l.24-.7c0-.07.07-.15.31-.23a9.33,9.33,0,0,1,3.07.24.43.43,0,0,1,.32.47l0,6.77,4.11-.68V3.16a4.32,4.32,0,0,0-2.36-1.08Z"/><path class="cls-1" d="M174.19,9.76a13.3,13.3,0,0,1,2.6-.22.46.46,0,0,1,.39.38,1.33,1.33,0,0,1-.4,1l-.47.16-5.28.76V14a16.75,16.75,0,0,1-.64,4.78l-1.1.15c-.08-.54-.08-1.46-.16-2.31a134.26,134.26,0,0,1-15,4.21,12.17,12.17,0,0,0-2.2.84,9.68,9.68,0,0,1-2.68-1.16c-.15-.08-.15-.16-.07-.23l.15-.39a11,11,0,0,0,2.92-.15l5.84-1.14V16.28c-2.83.15-4.88-1-4.88-3.09s2.52-4.08,5.68-4.54,5.68.71,5.67,3-2,3.77-4.67,4.39v2.16c3.39-.77,6.94-1.76,9.31-2.53l0-12.56A4.7,4.7,0,0,0,166.72,2l.24-.7c0-.15.08-.15.31-.23a14,14,0,0,1,3.54.24c.24.08.31.24.31.54v9l2.2-.39Zm-9.77-4.33a11.79,11.79,0,0,1,2.52-.07.31.31,0,0,1,.23.31,1.37,1.37,0,0,1-.63,1.08L164.1,7,154.32,8.5l-2.13.76a7.36,7.36,0,0,1-2.2-.93.22.22,0,0,1-.08-.23l.16-.38a14.23,14.23,0,0,0,2.52-.16l11-1.59Zm-9.85-1.64a38.34,38.34,0,0,0,7.18-.37c.23,0,.31.08.31.23a1.54,1.54,0,0,1,0,.85.47.47,0,0,1-.4.23l-5,.84h-.48a5.35,5.35,0,0,1-1.81-1.32.15.15,0,0,1,0-.2l0,0Zm15.56,24a15,15,0,0,1,2.51-.15.31.31,0,0,1,.32.31,1.62,1.62,0,0,1-.24,1l-.31.15L158.76,31c-1.57.23-2-.23-2-1.54V27.15a3,3,0,0,0-1.66-.48v-.53c0-.08.08-.16.32-.23l3.23-.31,9.62-1.45.47-.23c.08-.61.09-2.08.09-2.69l-9.07,1.37a12.3,12.3,0,0,0-2.29.76,7.75,7.75,0,0,1-2.28-.85c-.16-.08-.16-.16-.08-.31l.16-.32a11.7,11.7,0,0,0,2.51-.07l11.12-1.75.79-.53h.47l1,.47c.16.07.16.23.08.38l-.31.7a14.62,14.62,0,0,1-.56,2.69l.55.23a.25.25,0,0,1,.16.24,1.09,1.09,0,0,1-.24.69l-12.05,1.75V29.3c0,.39.15.54.47.47l10.25-1.44ZM159,15.12c2.13-.31,3.87-1.53,3.87-3.23S161.18,9.42,159,9.73s-3.86,1.53-3.87,3.22S156.83,15.43,159,15.12Z"/><path class="cls-2" d="M46.29,13.93a13.41,13.41,0,0,1,2.61-.23.47.47,0,0,1,.39.39,1.36,1.36,0,0,1-.4,1l-.47.23-5.36.76,0,9.62a33.53,33.53,0,0,1-.64,6.16L41.3,32c-.08-1.31-.15-4.08-.15-5.39V20.31A70.61,70.61,0,0,1,27.52,24.9l-.95.16a1.57,1.57,0,0,1-1.72-1.16,4.48,4.48,0,0,1-.16-1.31l0-10.47a6.77,6.77,0,0,0-2.3-.62l.16-.7c0-.15.16-.15.32-.23a22.54,22.54,0,0,1,3.39-.22c.23,0,.39.23.39.54l0,11.93c0,.39.15.55.47.47a70.78,70.78,0,0,0,14.12-4.13l0-14.33a5.4,5.4,0,0,0-2.59-1.16L38.83,3c0-.16.15-.16.31-.23A13.85,13.85,0,0,1,42.77,3c.23.07.31.23.31.54l0,11.47,2.2-.38Z"/><path class="cls-2" d="M66,2.72c0-.16.08-.16.32-.23A13.33,13.33,0,0,1,70,2.73a.51.51,0,0,1,.4.54l0,22.17a33.53,33.53,0,0,1-.64,6.16l-1.1.16c-.08-1.31-.15-4.08-.15-5.39V22.13a121.67,121.67,0,0,1-16,4.43,10.49,10.49,0,0,0-2.29.84,10.26,10.26,0,0,1-2.91-1.24.22.22,0,0,1-.08-.31l.16-.39a16.66,16.66,0,0,0,3.23-.22A157.07,157.07,0,0,0,68.42,21l0-16.39a5,5,0,0,0-2.6-1.16ZM50.23,14.55A7.31,7.31,0,0,1,56.79,7.7c3.7-.53,6.54,1.63,6.53,5a7.19,7.19,0,0,1-6.56,6.77C53.05,19.94,50.22,17.93,50.23,14.55Zm2-.23a3.73,3.73,0,0,0,3.51,3.94,4.18,4.18,0,0,0,1.06-.08,5.14,5.14,0,0,0,4.57-5.08,3.67,3.67,0,0,0-4.56-3.85,5.12,5.12,0,0,0-4.66,5.07Z"/><path class="cls-2" d="M15.94,16.53,15.14,22h3.23v2H14.9l-1,6.42h-1L13.87,24H8.36l-1,6.34h-1l1-6.42H4.18v-2H7.57l.8-5.48H5.22V14.48H8.69l.88-6.1h1.1l-.95,6.11h5.52l.88-6.11h1l-.88,6.11h3.23v2Zm-1,0H9.48L8.68,22h5.44Z"/></svg>