<svg id="Layer_1" data-name="Layer 1" xmlns="http://www.w3.org/2000/svg" viewBox="0 0 87.35 81.35"><defs><style>.cls-1{fill:#9a9a9a;}.cls-1,.cls-2{fill-rule:evenodd;}.cls-2{fill:#fff;}</style></defs><path class="cls-1" d="M43.46,4A20,20,0,0,0,23.75,20a2.37,2.37,0,0,1-.09.36,13.66,13.66,0,0,0-.27,3.41c0,7.56,3.44,15.21,8,21.88a73.07,73.07,0,0,0,12,13.4A73.14,73.14,0,0,0,55.4,45.78c4.59-6.61,8-14.2,8.13-21.72h0v-.44h0a12.92,12.92,0,0,0-.27-3.23,1.9,1.9,0,0,1-.09-.36A20,20,0,0,0,43.46,4Z"/><path class="cls-2" d="M67.13,24.17h0v.52c-.1,8.55-4,16.66-8.49,23.17A71.39,71.39,0,0,1,45,62.54a2.49,2.49,0,0,1-3.08,0A71.49,71.49,0,0,1,28.19,47.75c-4.54-6.57-8.4-14.76-8.4-23.38a17.63,17.63,0,0,1,.47-4.71,23.67,23.67,0,0,1,46.4,0,17.1,17.1,0,0,1,.47,4.51h0Zm-46.81-4.7-.06.19,0,.15ZM43.46,6.09A18.46,18.46,0,0,0,25.28,20.9l-.09.33a12.11,12.11,0,0,0-.25,3.14c0,7,3.17,14,7.42,20.19a67.36,67.36,0,0,0,11.1,12.37,67.77,67.77,0,0,0,11-12.25c4.23-6.1,7.42-13.11,7.5-20h0v-.41h0a12,12,0,0,0-.25-3c0-.11-.06-.22-.09-.33A18.46,18.46,0,0,0,43.46,6.09Z"/><path class="cls-2" d="M43.46,32.79a7.08,7.08,0,0,0,6.9-7.25,6.91,6.91,0,1,0-13.8,0A7.08,7.08,0,0,0,43.46,32.79Zm0,5.41c6.66,0,12-5.67,12-12.66s-5.39-12.66-12-12.66-12,5.67-12,12.66S36.8,38.2,43.46,38.2Z"/></svg>