<svg id="Layer_1" data-name="Layer 1" xmlns="http://www.w3.org/2000/svg" viewBox="0 0 261.17 261.17"><defs><style>.cls-1{fill:#9a9a9a;}.cls-2{fill:#fff;fill-rule:evenodd;}</style></defs><circle class="cls-1" cx="130.59" cy="130.59" r="130"/><path class="cls-2" d="M121.5,166.92a6.08,6.08,0,0,0-6.08-5.88H93.62V130.36h8.48v13.23a2.89,2.89,0,0,0,2.85,2.94,17.4,17.4,0,0,0,14.33-7.19,25.22,25.22,0,0,0,4.2-9h8.31V144.3a2.85,2.85,0,1,0,5.69,0V130.36h30.07V161H146.1a2.94,2.94,0,0,0,0,5.88h24.29a2.89,2.89,0,0,0,2.85-2.94V127.42a2.89,2.89,0,0,0-2.85-2.94H137.48V97.19a2.9,2.9,0,0,0-2.85-2.94H90.78a2.9,2.9,0,0,0-2.85,2.94V164a2.9,2.9,0,0,0,2.85,2.94H121.5Zm10.29-42.44H121.14a2.88,2.88,0,0,0-2.82,2.56,19.33,19.33,0,0,1-3.52,8.68,11.81,11.81,0,0,1-7,4.64V127.42a2.89,2.89,0,0,0-2.84-2.94H93.62V100.13h38.17Z"/></svg>