<svg id="Layer_1" data-name="Layer 1" xmlns="http://www.w3.org/2000/svg" viewBox="0 0 100.66 100.66"><defs><style>.cls-1{fill:#fff;}</style></defs><path class="cls-1" d="M100.18.29c-2,9.65-3.79,18.78-5.79,27.87a7.71,7.71,0,0,1-2.27,3.27Q60.7,63.08,29.2,94.66c-5.72,5.73-13,7.22-19.42,4.16S-.64,89.25.77,82A21.08,21.08,0,0,1,6.06,71.77C27,50.35,48.21,29.19,69.39,8a8,8,0,0,1,3.68-2.18C81.85,3.93,90.68,2.21,100.18.29ZM82.05,22.4,29.15,75.55l5.19,5.16,52.9-53.15Zm-9.47-9.52-53,53.25,5.14,5.12L77.72,18ZM30.21,85.52,15.54,70.92c-2.28,2.3-4.43,4.27-6.36,6.44A10.05,10.05,0,0,0,9,90.89a9.83,9.83,0,0,0,13.13,1.77C25,90.68,27.44,88,30.21,85.52Zm59.48-64c1-4.73,2-9,3-13.75L78.61,10.49Z"/></svg>