<svg id="Layer_1" data-name="Layer 1" xmlns="http://www.w3.org/2000/svg" viewBox="0 0 261.17 261.17"><defs><style>.cls-1{fill:#f0f0f0;}.cls-2{fill:#444;}</style></defs><circle class="cls-1" cx="130.59" cy="130.59" r="130"/><path class="cls-2" d="M177.49,83.5c-1.86,9-3.56,17.61-5.44,26.14a7.23,7.23,0,0,1-2.12,3.07q-29.49,29.69-59,59.3c-5.37,5.38-12.19,6.78-18.22,3.91s-9.78-9-8.45-15.82a19.72,19.72,0,0,1,5-9.55c19.65-20.1,39.54-40,59.4-59.82a7.51,7.51,0,0,1,3.45-2C160.3,86.91,168.58,85.29,177.49,83.5Zm-17,20.73-49.62,49.86,4.86,4.84,49.63-49.85Zm-8.88-8.92-49.72,49.95,4.82,4.79,49.72-49.94Zm-39.75,68.13L98.1,149.75c-2.15,2.15-4.17,4-6,6a9.43,9.43,0,0,0-.19,12.69,9.21,9.21,0,0,0,12.31,1.66C107,168.28,109.26,165.76,111.85,163.44Zm55.79-60c1-4.44,1.84-8.47,2.81-12.91l-13.2,2.56Z"/></svg>