<svg id="Layer_1" data-name="Layer 1" xmlns="http://www.w3.org/2000/svg" viewBox="0 0 261.17 261.17"><defs><style>.cls-1,.cls-3{fill:#f0f0f0;}.cls-2,.cls-4{fill:#444;}.cls-3,.cls-4{fill-rule:evenodd;}</style></defs><circle class="cls-1" cx="130.59" cy="130.59" r="130"/><path class="cls-2" d="M172.84,166.73l-13.31-29.79a2.56,2.56,0,0,0-2.33-1.56H104a2.56,2.56,0,0,0-2.33,1.56L88.33,166.73a2.82,2.82,0,0,0,.16,2.6,2.55,2.55,0,0,0,2.17,1.26h79.85a2.55,2.55,0,0,0,2.17-1.26A2.79,2.79,0,0,0,172.84,166.73Zm-78.12-1.56,10.89-24.37h50l10.88,24.37Z"/><path class="cls-3" d="M130.37,93.87a20,20,0,0,0-19.71,16,2.37,2.37,0,0,1-.09.36,13.73,13.73,0,0,0-.27,3.41c0,7.56,3.44,15.21,8,21.88a73.07,73.07,0,0,0,12,13.4,73.14,73.14,0,0,0,11.94-13.28c4.59-6.6,8-14.2,8.13-21.72h0v-.44h0a12.92,12.92,0,0,0-.27-3.23,2,2,0,0,1-.09-.35A20,20,0,0,0,130.37,93.87Z"/><path class="cls-4" d="M154,114.09h0v.52c-.1,8.55-4,16.66-8.49,23.17a71.11,71.11,0,0,1-13.64,14.67,2.49,2.49,0,0,1-3.08,0,71.49,71.49,0,0,1-13.73-14.79c-4.54-6.57-8.4-14.76-8.4-23.37a17.66,17.66,0,0,1,.47-4.72,23.67,23.67,0,0,1,46.4,0,17.1,17.1,0,0,1,.47,4.51h0Zm-46.81-4.7-.06.18,0,.15ZM130.37,96a18.46,18.46,0,0,0-18.18,14.81l-.09.33a12.22,12.22,0,0,0-.25,3.15c0,7,3.17,14,7.42,20.19a67.59,67.59,0,0,0,11.1,12.36,67.77,67.77,0,0,0,11-12.25c4.23-6.1,7.42-13.1,7.5-20h0v-.41h0a12.06,12.06,0,0,0-.25-3l-.09-.33A18.46,18.46,0,0,0,130.37,96Z"/><path class="cls-4" d="M130.37,122.7a7.25,7.25,0,1,0-6.9-7.25A7.08,7.08,0,0,0,130.37,122.7Zm0,5.42c6.66,0,12-5.67,12-12.67s-5.39-12.66-12-12.66-12.05,5.67-12.05,12.66S123.71,128.12,130.37,128.12Z"/></svg>