<svg id="Layer_1" data-name="Layer 1" xmlns="http://www.w3.org/2000/svg" viewBox="0 0 85.31 87.15"><defs><style>.cls-1{fill:#3c3c3c;fill-rule:evenodd;}</style></defs><path class="cls-1" d="M33.57,72.67a6.1,6.1,0,0,0-6.09-5.88H5.69V36.11h8.48V49.34A2.89,2.89,0,0,0,17,52.28a17.43,17.43,0,0,0,14.34-7.19,25,25,0,0,0,4.19-9h8.32V50a2.84,2.84,0,1,0,5.68,0V36.11H79.62V66.79H58.17a2.94,2.94,0,0,0,0,5.88H82.46a2.9,2.9,0,0,0,2.85-2.94V33.17a2.9,2.9,0,0,0-2.85-2.94H49.54V2.94A2.89,2.89,0,0,0,46.7,0H2.84A2.89,2.89,0,0,0,0,2.94V69.73a2.89,2.89,0,0,0,2.84,2.94H33.57ZM43.86,30.23H33.21a2.88,2.88,0,0,0-2.82,2.56,19.37,19.37,0,0,1-3.52,8.68,11.81,11.81,0,0,1-7,4.64V33.17A2.9,2.9,0,0,0,17,30.23H5.69V5.88H43.86Z"/></svg>