<svg id="arrow-circle-down" xmlns="http://www.w3.org/2000/svg" viewBox="0 0 15 15"><defs><style>.cls-1{fill:#5a5a5a;}</style></defs><path class="cls-1" d="M12.5,0H2.5A2.5,2.5,0,0,0,0,2.5V10a2.5,2.5,0,0,0,2.5,2.5H4.31l2.78,2.35a.62.62,0,0,0,.81,0l2.79-2.35H12.5A2.5,2.5,0,0,0,15,10V2.5A2.5,2.5,0,0,0,12.5,0ZM4.38,3.13H7.5a.61.61,0,0,1,.62.62.62.62,0,0,1-.62.63H4.38a.63.63,0,0,1-.63-.63A.62.62,0,0,1,4.38,3.13Zm6.24,6.25H4.38a.63.63,0,0,1-.63-.63.62.62,0,0,1,.63-.62h6.24a.62.62,0,0,1,.63.62A.63.63,0,0,1,10.62,9.38Zm0-2.5H4.38a.63.63,0,0,1-.63-.63.62.62,0,0,1,.63-.62h6.24a.62.62,0,0,1,.63.62A.63.63,0,0,1,10.62,6.88Z"/></svg>