<svg id="Layer_1" data-name="Layer 1" xmlns="http://www.w3.org/2000/svg" viewBox="0 0 14 14"><defs><style>.cls-1{fill:#c61627;}</style></defs><path class="cls-1" d="M9.12,4.32a.54.54,0,0,0,.45.34c.56.06,1.13.12,1.69.21l2.06.31c.21,0,.39.09.43.27a.52.52,0,0,1-.14.42C13.07,6.43,12.51,7,12,7.5s-.85.81-1.25,1.23a.31.31,0,0,0-.06.27c.06.47.15.94.23,1.41l.3,1.72c.05.3.11.6.13.9s-.28.52-.61.34c-.51-.28-1-.54-1.56-.82l-1.76-.94a.58.58,0,0,0-.63-.06c-.41.25-.84.46-1.27.69l-.78.4c-.45.23-.89.49-1.35.7a.7.7,0,0,1-.49,0,.2.2,0,0,1-.09-.11.75.75,0,0,1,0-.42c.13-.74.26-1.45.38-2.15s.2-1.13.28-1.7a.37.37,0,0,0-.09-.31C2.39,7.8,1.48,6.92.57,6L.34,5.79c-.24-.28,0-.56.28-.6l2.67-.37c.42-.06.84-.13,1.27-.18.23,0,.3-.21.38-.37C5.3,3.55,5.65,2.82,6,2.1c.23-.46.45-.91.69-1.35a.36.36,0,0,1,.63,0Z"/></svg>