<svg id="Layer_1" data-name="Layer 1" xmlns="http://www.w3.org/2000/svg" viewBox="0 0 80 80"><defs><style>.cls-1{fill:none;stroke:#888;stroke-miterlimit:10;}</style></defs><polyline class="cls-1" points="22.37 75.24 22.37 61.83 22.37 4.76 59.63 4.76 59.63 75.24"/><line class="cls-1" x1="59.63" y1="63.15" x2="22.37" y2="63.15"/><line class="cls-1" x1="59.63" y1="43.68" x2="22.37" y2="43.68"/><line class="cls-1" x1="59.63" y1="24.22" x2="22.37" y2="24.22"/><polygon class="cls-1" points="27.98 22.65 24.12 22.65 24.12 10.35 24.12 9.41 27.98 9.41 27.98 16.19 27.98 22.65"/><line class="cls-1" x1="27.98" y1="10.96" x2="24.12" y2="10.96"/><line class="cls-1" x1="27.98" y1="21.05" x2="24.12" y2="21.05"/><polygon class="cls-1" points="33.48 22.65 29.62 22.65 29.62 10.35 29.62 9.41 33.48 9.41 33.48 16.19 33.48 22.65"/><line class="cls-1" x1="33.48" y1="10.96" x2="29.62" y2="10.96"/><line class="cls-1" x1="33.48" y1="21.05" x2="29.62" y2="21.05"/><polygon class="cls-1" points="27.98 41.91 24.12 41.91 24.12 29.61 24.12 28.68 27.98 28.68 27.98 35.45 27.98 41.91"/><line class="cls-1" x1="27.98" y1="30.22" x2="24.12" y2="30.22"/><line class="cls-1" x1="27.98" y1="40.32" x2="24.12" y2="40.32"/><polygon class="cls-1" points="33.48 41.91 29.62 41.91 29.62 29.61 29.62 28.68 33.48 28.68 33.48 35.45 33.48 41.91"/><line class="cls-1" x1="33.48" y1="30.22" x2="29.62" y2="30.22"/><line class="cls-1" x1="33.48" y1="40.32" x2="29.62" y2="40.32"/><polygon class="cls-1" points="43.93 20.25 40.62 22.22 34.31 11.66 33.83 10.86 37.15 8.88 40.62 14.7 43.93 20.25"/><line class="cls-1" x1="37.94" y1="10.21" x2="34.63" y2="12.19"/><line class="cls-1" x1="43.11" y1="18.88" x2="39.8" y2="20.85"/><polygon class="cls-1" points="54.03 22.65 57.89 22.65 57.89 10.35 57.89 9.41 54.03 9.41 54.03 16.19 54.03 22.65"/><line class="cls-1" x1="54.03" y1="10.96" x2="57.89" y2="10.96"/><line class="cls-1" x1="54.03" y1="21.05" x2="57.89" y2="21.05"/></svg>